<?xml version="1.0" encoding="UTF-8"?>
<svg version="1.1" xmlns="http://www.w3.org/2000/svg" width="587" height="255">
<path d="M0 0 C193.71 0 387.42 0 587 0 C587 84.15 587 168.3 587 255 C393.29 255 199.58 255 0 255 C0 170.85 0 86.7 0 0 Z " fill="#FEFEFE" transform="translate(0,0)"/>
<path d="M0 0 C1.18247314 0.00829834 2.36494629 0.01659668 3.58325195 0.02514648 C12.54919636 0.19824373 20.20734016 1.17686625 28.625 4.4375 C29.26405273 4.67355957 29.90310547 4.90961914 30.56152344 5.15283203 C44.28961422 10.28844921 59.5749992 18.68070814 67.81323242 31.25048828 C69.29068315 33.33614799 70.57878694 34.8970531 72.625 36.4375 C76.17385781 37.04000149 79.40805322 36.51699869 82.9375 35.9375 C83.83662109 35.81890625 84.73574219 35.7003125 85.66210938 35.578125 C88.32086775 35.22439287 90.97208049 34.83232026 93.625 34.4375 C110.94817936 32.01934259 136.13379103 29.58714754 151.2421875 40.15625 C153.24469423 42.01167996 154.53848197 43.66794488 154.84765625 46.41796875 C154.34521543 53.34184833 151.55295715 56.75110937 146.625 61.4375 C146.07070313 62.01113281 145.51640625 62.58476563 144.9453125 63.17578125 C130.67646697 76.9689986 108.56506081 84.47975049 90.7355957 92.43066406 C88.68785242 93.26339481 88.68785242 93.26339481 87.625 94.4375 C87.15705881 97.0812187 86.72645478 99.7228307 86.3125 102.375 C85.19327168 109.19406839 83.53104353 115.12437095 80.625 121.4375 C83.925 121.7675 87.225 122.0975 90.625 122.4375 C90.955 123.7575 91.285 125.0775 91.625 126.4375 C92.06328125 126.0765625 92.5015625 125.715625 92.953125 125.34375 C99.00242166 120.91743537 104.28173812 120.43442557 111.625 121.4375 C118.73805247 123.13584118 123.6985868 126.19290927 127.625 132.4375 C127.955 133.4275 128.285 134.4175 128.625 135.4375 C129.08648437 134.84582031 129.54796875 134.25414062 130.0234375 133.64453125 C135.78364701 126.66625372 141.04792431 122.11132144 150.24609375 121 C159.59296687 120.6987916 167.31943993 121.77319355 174.5625 127.9375 C176.31694967 130.06410566 177.98055123 132.22616148 179.625 134.4375 C179.98851562 133.90640625 180.35203125 133.3753125 180.7265625 132.828125 C184.66855746 127.2891167 188.026848 123.636884 194.625 121.4375 C197.07465028 121.33893419 199.48848792 121.29631201 201.9375 121.3125 C202.9903418 121.31540039 202.9903418 121.31540039 204.06445312 121.31835938 C210.95056237 121.3740422 217.76088187 121.86549016 224.625 122.4375 C224.625 116.1675 224.625 109.8975 224.625 103.4375 C230.235 103.4375 235.845 103.4375 241.625 103.4375 C241.625 109.7075 241.625 115.9775 241.625 122.4375 C245.255 122.4375 248.885 122.4375 252.625 122.4375 C252.625 127.0575 252.625 131.6775 252.625 136.4375 C248.995 136.4375 245.365 136.4375 241.625 136.4375 C241.76540213 139.72948191 241.91206875 143.02097446 242.0625 146.3125 C242.12147461 147.71822266 242.12147461 147.71822266 242.18164062 149.15234375 C242.22353516 150.04824219 242.26542969 150.94414062 242.30859375 151.8671875 C242.34525146 152.69460449 242.38190918 153.52202148 242.41967773 154.37451172 C242.50738327 156.49929429 242.50738327 156.49929429 243.625 158.4375 C245.935 158.4375 248.245 158.4375 250.625 158.4375 C251.29967562 160.18442795 251.96444156 161.93518525 252.625 163.6875 C252.99625 164.66203125 253.3675 165.6365625 253.75 166.640625 C254.625 169.4375 254.625 169.4375 254.625 173.4375 C250.41126681 175.45944491 246.83916919 175.7656554 242.1875 175.8125 C240.91003906 175.84085938 239.63257813 175.86921875 238.31640625 175.8984375 C232.61209915 175.18615365 229.87890561 172.95090594 226.265625 168.58984375 C223.33711948 162.91321168 224.21229412 156.19846823 224.375 150 C224.39304687 148.69611328 224.41109375 147.39222656 224.4296875 146.04882812 C224.47664043 142.84429091 224.54230536 139.6412811 224.625 136.4375 C223.86791748 136.44910156 223.11083496 136.46070313 222.33081055 136.47265625 C221.33863525 136.48167969 220.34645996 136.49070313 219.32421875 136.5 C217.84828247 136.51740234 217.84828247 136.51740234 216.3425293 136.53515625 C213.14612308 136.42029123 210.62534638 135.50428982 207.625 134.4375 C204.93230503 134.27012956 202.32678311 134.34433507 199.625 134.4375 C199.295 135.7575 198.965 137.0775 198.625 138.4375 C199.62660156 138.80101562 200.62820313 139.16453125 201.66015625 139.5390625 C208.95794751 142.26817625 215.19823748 144.62311159 220.625 150.4375 C222.43705684 155.87367053 222.3349836 161.41965186 220.4375 166.8125 C216.70474778 172.21855493 212.91620137 173.9486457 206.625 175.4375 C197.42091494 176.48737114 188.48135094 176.49419207 180.27734375 171.82421875 C178.625 170.4375 178.625 170.4375 177.625 167.4375 C176.779375 168.200625 175.93375 168.96375 175.0625 169.75 C169.37093908 174.88628669 163.19712346 176.00010145 155.8125 175.9375 C154.6227356 175.92783203 154.6227356 175.92783203 153.40893555 175.91796875 C145.65354215 175.67667926 140.08889927 173.83853358 134.47265625 168.32421875 C132.77534573 166.4319696 131.18795272 164.44215675 129.625 162.4375 C129.295 166.3975 128.965 170.3575 128.625 174.4375 C122.685 174.4375 116.745 174.4375 110.625 174.4375 C110.59921875 172.11332031 110.5734375 169.78914062 110.546875 167.39453125 C110.50841919 165.13391205 110.46327073 162.87351824 110.41748047 160.61303711 C110.38932306 159.04674103 110.36808247 157.48030425 110.35400391 155.91381836 C110.33250033 153.65665934 110.28581811 151.40118261 110.234375 149.14453125 C110.23253204 148.10048882 110.23253204 148.10048882 110.23065186 147.03535461 C110.08828221 142.26789824 109.02475593 139.77475896 105.625 136.4375 C103.46228572 135.65753113 103.46228572 135.65753113 101.1875 135.8125 C100.44628906 135.79960937 99.70507812 135.78671875 98.94140625 135.7734375 C95.40831316 136.78629724 93.93116719 138.61157698 91.625 141.4375 C91.11737268 144.20642757 90.90235729 146.38150312 90.91796875 149.14453125 C90.90284744 149.86992599 90.88772614 150.59532074 90.87214661 151.34269714 C90.82937173 153.64545013 90.82044259 155.94688984 90.8125 158.25 C90.78934739 159.81709196 90.76398044 161.38415286 90.73632812 162.95117188 C90.6694287 166.78065706 90.64837261 170.60651638 90.625 174.4375 C84.685 174.4375 78.745 174.4375 72.625 174.4375 C72.295 169.8175 71.965 165.1975 71.625 160.4375 C71.08875 161.324375 70.5525 162.21125 70 163.125 C65.50651275 169.75601417 59.38802488 173.65190879 51.625 175.4375 C39.54222936 176.7920707 29.9926975 175.89286668 20.3125 168.1875 C15.30604366 163.4208739 12.68488992 159.4533712 12.35546875 152.44140625 C12.13768003 141.41213994 12.13768003 141.41213994 13.625 138.4375 C5.46276347 136.92359295 5.46276347 136.92359295 -2.3828125 138.4140625 C-6.28316032 142.40783182 -6.53371387 145.8337717 -6.69140625 151.1953125 C-6.7225779 152.18988968 -6.7225779 152.18988968 -6.75437927 153.20455933 C-6.81979231 155.32376694 -6.87872105 157.443099 -6.9375 159.5625 C-6.98069309 160.99871081 -7.02430764 162.43490902 -7.06835938 163.87109375 C-7.17625909 167.39310344 -7.27539243 170.91520688 -7.375 174.4375 C-13.315 174.4375 -19.255 174.4375 -25.375 174.4375 C-25.375 172.4575 -25.375 170.4775 -25.375 168.4375 C-27.355 168.1075 -29.335 167.7775 -31.375 167.4375 C-31.705 168.4275 -32.035 169.4175 -32.375 170.4375 C-34.08203125 171.5703125 -34.08203125 171.5703125 -36.1875 172.5625 C-37.21810547 173.06136719 -37.21810547 173.06136719 -38.26953125 173.5703125 C-43.49061212 175.72073913 -48.48978512 175.6548394 -54.0625 175.6875 C-55.35317383 175.7184375 -55.35317383 175.7184375 -56.66992188 175.75 C-63.86754564 175.79339185 -69.88075251 174.37874861 -76.1875 170.875 C-81.41078855 165.05476419 -82.375 159.1101799 -82.375 151.4375 C-93.925 151.4375 -105.475 151.4375 -117.375 151.4375 C-115.71737648 157.4147499 -115.71737648 157.4147499 -111.375 160.4375 C-106.8121738 161.19426142 -102.65040369 161.07520185 -98.5 159 C-97.448125 158.2265625 -97.448125 158.2265625 -96.375 157.4375 C-94.6015625 156.65625 -94.6015625 156.65625 -92.375 156.4375 C-89.578125 157.65234375 -89.578125 157.65234375 -86.625 159.375 C-85.64015625 159.94089844 -84.6553125 160.50679687 -83.640625 161.08984375 C-82.89296875 161.53457031 -82.1453125 161.97929687 -81.375 162.4375 C-84.90623314 168.51122101 -88.87520345 172.21683925 -95.578125 174.5546875 C-103.32737601 176.35646809 -113.69991827 177.27433661 -121.0625 173.75 C-122.80859375 172.63671875 -122.80859375 172.63671875 -124.375 171.4375 C-124.92285156 171.05207031 -125.47070312 170.66664063 -126.03515625 170.26953125 C-129.7352936 167.46033606 -132.00948565 164.3496968 -134.375 160.4375 C-134.705 165.0575 -135.035 169.6775 -135.375 174.4375 C-141.74835366 175.6489083 -148.1145097 176.61269061 -154.375 174.4375 C-159.66161862 170.13741179 -162.5424212 163.48527346 -165.66064453 157.5625 C-168.79474791 151.84952318 -172.43982754 146.45307402 -176 141 C-177.34936855 138.89906841 -178.69591201 136.79631854 -180.0390625 134.69140625 C-180.61092285 133.79752197 -181.1827832 132.9036377 -181.77197266 131.98266602 C-183.34207385 129.48977766 -184.85922616 126.96378973 -186.375 124.4375 C-186.705 140.9375 -187.035 157.4375 -187.375 174.4375 C-193.645 174.4375 -199.915 174.4375 -206.375 174.4375 C-206.375 147.0475 -206.375 119.6575 -206.375 91.4375 C-187.375 91.4375 -187.375 91.4375 -182.875 95.8125 C-181.65781914 97.99339843 -180.49683197 100.20605646 -179.375 102.4375 C-177.69027381 105.27831396 -175.93218555 108.07006331 -174.1875 110.875 C-172.269375 114.030625 -170.35125 117.18625 -168.375 120.4375 C-164.085 127.0375 -159.795 133.6375 -155.375 140.4375 C-155.045 124.2675 -154.715 108.0975 -154.375 91.4375 C-147.775 91.4375 -141.175 91.4375 -134.375 91.4375 C-133.88 96.8825 -133.88 96.8825 -133.375 102.4375 C-132.58480469 101.96441406 -131.79460937 101.49132812 -130.98046875 101.00390625 C-118.03842315 93.4161698 -104.5649893 86.82361096 -90.52734375 81.5078125 C-88.05916094 80.50327469 -88.05916094 80.50327469 -86.375 77.4375 C-85.71475323 74.62640569 -85.12000733 71.83104659 -84.5625 69 C-79.74563111 46.14151908 -66.6817075 26.59659057 -47.1015625 13.71484375 C-43.15349663 11.23323269 -39.0710732 9.09210687 -34.875 7.0625 C-33.89877686 6.58018921 -33.89877686 6.58018921 -32.90283203 6.08813477 C-22.39856219 1.22647405 -11.46872105 -0.10477862 0 0 Z " fill="#E0E6FD" transform="translate(275.375,49.5625)"/>
<path d="M0 0 C5.61 0 11.22 0 17 0 C17 6.27 17 12.54 17 19 C20.63 19 24.26 19 28 19 C28 23.62 28 28.24 28 33 C24.37 33 20.74 33 17 33 C17.14040213 36.29198191 17.28706875 39.58347446 17.4375 42.875 C17.47681641 43.81214844 17.51613281 44.74929687 17.55664062 45.71484375 C17.59853516 46.61074219 17.64042969 47.50664062 17.68359375 48.4296875 C17.72025146 49.25710449 17.75690918 50.08452148 17.79467773 50.93701172 C17.88238327 53.06179429 17.88238327 53.06179429 19 55 C21.31 55 23.62 55 26 55 C26.67467562 56.74692795 27.33944156 58.49768525 28 60.25 C28.37125 61.22453125 28.7425 62.1990625 29.125 63.203125 C30 66 30 66 30 70 C25.78626681 72.02194491 22.21416919 72.3281554 17.5625 72.375 C16.28503906 72.40335937 15.00757813 72.43171875 13.69140625 72.4609375 C7.98709915 71.74865365 5.25390561 69.51340594 1.640625 65.15234375 C-1.28788052 59.47571168 -0.41270588 52.76096823 -0.25 46.5625 C-0.23195313 45.25861328 -0.21390625 43.95472656 -0.1953125 42.61132812 C-0.14835957 39.40679091 -0.08269464 36.2037811 0 33 C-0.75708252 33.01160156 -1.51416504 33.02320313 -2.29418945 33.03515625 C-3.28636475 33.04417969 -4.27854004 33.05320313 -5.30078125 33.0625 C-6.28473877 33.07410156 -7.26869629 33.08570313 -8.2824707 33.09765625 C-11.47887692 32.98279123 -13.99965362 32.06678982 -17 31 C-19.69269497 30.83262956 -22.29821689 30.90683507 -25 31 C-25.33 32.32 -25.66 33.64 -26 35 C-24.99839844 35.36351562 -23.99679687 35.72703125 -22.96484375 36.1015625 C-15.66705249 38.83067625 -9.42676252 41.18561159 -4 47 C-2.18794316 52.43617053 -2.2900164 57.98215186 -4.1875 63.375 C-7.92025222 68.78105493 -11.70879863 70.5111457 -18 72 C-27.20408506 73.04987114 -36.14364906 73.05669207 -44.34765625 68.38671875 C-46 67 -46 67 -47 64 C-47.845625 64.763125 -48.69125 65.52625 -49.5625 66.3125 C-55.25406092 71.44878669 -61.42787654 72.56260145 -68.8125 72.5 C-69.60567627 72.49355469 -70.39885254 72.48710937 -71.21606445 72.48046875 C-78.97145785 72.23917926 -84.53610073 70.40103358 -90.15234375 64.88671875 C-91.84965427 62.9944696 -93.43704728 61.00465675 -95 59 C-95.33 62.96 -95.66 66.92 -96 71 C-101.94 71 -107.88 71 -114 71 C-114.02578125 68.67582031 -114.0515625 66.35164063 -114.078125 63.95703125 C-114.11658081 61.69641205 -114.16172927 59.43601824 -114.20751953 57.17553711 C-114.23567694 55.60924103 -114.25691753 54.04280425 -114.27099609 52.47631836 C-114.29249967 50.21915934 -114.33918189 47.96368261 -114.390625 45.70703125 C-114.39246796 44.66298882 -114.39246796 44.66298882 -114.39434814 43.59785461 C-114.53671779 38.83039824 -115.60024407 36.33725896 -119 33 C-121.16271428 32.22003113 -121.16271428 32.22003113 -123.4375 32.375 C-124.17871094 32.36210937 -124.91992188 32.34921875 -125.68359375 32.3359375 C-129.21668684 33.34879724 -130.69383281 35.17407698 -133 38 C-133.50762732 40.76892757 -133.72264271 42.94400312 -133.70703125 45.70703125 C-133.72971321 46.79512337 -133.72971321 46.79512337 -133.75285339 47.90519714 C-133.79562827 50.20795013 -133.80455741 52.50938984 -133.8125 54.8125 C-133.83565261 56.37959196 -133.86101956 57.94665286 -133.88867188 59.51367188 C-133.9555713 63.34315706 -133.97662739 67.16901638 -134 71 C-139.94 71 -145.88 71 -152 71 C-152.33 66.38 -152.66 61.76 -153 57 C-153.53625 57.886875 -154.0725 58.77375 -154.625 59.6875 C-159.11848725 66.31851417 -165.23697512 70.21440879 -173 72 C-185.08277064 73.3545707 -194.6323025 72.45536668 -204.3125 64.75 C-209.31895634 59.9833739 -211.94011008 56.0158712 -212.26953125 49.00390625 C-212.48731997 37.97463994 -212.48731997 37.97463994 -211 35 C-219.16223653 33.48609295 -219.16223653 33.48609295 -227.0078125 34.9765625 C-230.90816032 38.97033182 -231.15871387 42.3962717 -231.31640625 47.7578125 C-231.33718735 48.42086395 -231.35796844 49.08391541 -231.37937927 49.76705933 C-231.44479231 51.88626694 -231.50372105 54.005599 -231.5625 56.125 C-231.60569309 57.56121081 -231.64930764 58.99740902 -231.69335938 60.43359375 C-231.80125909 63.95560344 -231.90039243 67.47770688 -232 71 C-237.94 71 -243.88 71 -250 71 C-250 53.84 -250 36.68 -250 19 C-244.06 19 -238.12 19 -232 19 C-231.67 20.98 -231.34 22.96 -231 25 C-230.0925 24.21625 -229.185 23.4325 -228.25 22.625 C-224.14236704 19.07749881 -221.04935318 17.71955976 -215.5625 17.75 C-214.63566406 17.74484375 -213.70882812 17.7396875 -212.75390625 17.734375 C-209.83945824 18.01548488 -207.65109503 18.78752097 -205 20 C-205.52268466 22.76276177 -206.10869587 25.3260876 -207 28 C-206.05125 27.0925 -205.1025 26.185 -204.125 25.25 C-195.06707153 17.65070415 -185.3623957 17.0482378 -174 18 C-166.7669654 19.24494621 -160.24567175 22.96805284 -155.61328125 28.72265625 C-154.67968178 30.10831441 -153.82896139 31.54931757 -153 33 C-152.67 28.38 -152.34 23.76 -152 19 C-146.06 19 -140.12 19 -134 19 C-133.505 20.98 -133.505 20.98 -133 23 C-132.56171875 22.6390625 -132.1234375 22.278125 -131.671875 21.90625 C-125.62257834 17.47993537 -120.34326188 16.99692557 -113 18 C-105.88694753 19.69834118 -100.9264132 22.75540927 -97 29 C-96.67 29.99 -96.34 30.98 -96 32 C-95.53851563 31.40832031 -95.07703125 30.81664062 -94.6015625 30.20703125 C-88.84135299 23.22875372 -83.57707569 18.67382144 -74.37890625 17.5625 C-65.03203313 17.2612916 -57.30556007 18.33569355 -50.0625 24.5 C-48.30805033 26.62660566 -46.64444877 28.78866148 -45 31 C-44.63648438 30.46890625 -44.27296875 29.9378125 -43.8984375 29.390625 C-39.95644254 23.8516167 -36.598152 20.199384 -30 18 C-27.55034972 17.90143419 -25.13651208 17.85881201 -22.6875 17.875 C-21.6346582 17.87790039 -21.6346582 17.87790039 -20.56054688 17.88085938 C-13.67443763 17.9365422 -6.86411813 18.42799016 0 19 C0 12.73 0 6.46 0 0 Z " fill="#5148E4" transform="translate(500,153)"/>
<path d="M0 0 C19 0 19 0 23.5 4.375 C24.71718086 6.55589843 25.87816803 8.76855646 27 11 C28.68472619 13.84081396 30.44281445 16.63256331 32.1875 19.4375 C34.105625 22.593125 36.02375 25.74875 38 29 C42.29 35.6 46.58 42.2 51 49 C51.33 32.83 51.66 16.66 52 0 C58.27 0 64.54 0 71 0 C71.33 15.18 71.66 30.36 72 46 C73.32 44.02 74.64 42.04 76 40 C81.23594664 34.44018037 86.50573787 30.38537755 94.234375 29.72265625 C105.24416979 29.42732914 112.32458186 30.86494159 120.46875 38.37890625 C122 40 122 40 123 42 C123.33 38.37 123.66 34.74 124 31 C129.94 31 135.88 31 142 31 C142.05607422 34.37798828 142.05607422 34.37798828 142.11328125 37.82421875 C142.15954821 40.01531454 142.21076279 42.20624298 142.26245117 44.3972168 C142.29561916 45.91501621 142.32367632 47.43293656 142.34643555 48.95092773 C142.38013278 51.13838019 142.43245204 53.32473264 142.48828125 55.51171875 C142.51446533 56.82615967 142.54064941 58.14060059 142.56762695 59.49487305 C143.01896667 63.15375743 143.78527411 65.08810216 146 68 C149.19233485 69.59616743 152.53461497 69.51466114 156 69 C158.43119623 67.12984906 159.64069173 65.71861655 161 63 C161.15608023 60.59439727 161.25804458 58.21297228 161.31640625 55.8046875 C161.3475779 54.74352219 161.3475779 54.74352219 161.37937927 53.66091919 C161.44481078 51.39904575 161.50372974 49.13705538 161.5625 46.875 C161.60569133 45.34243578 161.64930582 43.80988343 161.69335938 42.27734375 C161.80128289 38.51834732 161.90040283 34.75926325 162 31 C167.94 31 173.88 31 180 31 C180.09233694 35.96311044 180.17181375 40.92318635 180.21972656 45.88647461 C180.23971886 47.57114821 180.26692223 49.25575351 180.30175781 50.94018555 C180.51872164 61.70861074 180.57475521 69.98746458 173.8125 78.875 C167.2897897 83.80327001 159.95799204 84.48518758 152 84.375 C151.16210938 84.38660156 150.32421875 84.39820313 149.4609375 84.41015625 C142.40758455 84.37740074 136.36417977 82.86898876 130.1875 79.4375 C124.96421145 73.61726419 124 67.6726799 124 60 C112.45 60 100.9 60 89 60 C90.65762352 65.9772499 90.65762352 65.9772499 95 69 C99.5628262 69.75676142 103.72459631 69.63770185 107.875 67.5625 C108.926875 66.7890625 108.926875 66.7890625 110 66 C111.7734375 65.21875 111.7734375 65.21875 114 65 C116.796875 66.21484375 116.796875 66.21484375 119.75 67.9375 C120.73484375 68.50339844 121.7196875 69.06929688 122.734375 69.65234375 C123.48203125 70.09707031 124.2296875 70.54179687 125 71 C121.46876686 77.07372101 117.49979655 80.77933925 110.796875 83.1171875 C103.04762399 84.91896809 92.67508173 85.83683661 85.3125 82.3125 C83.56640625 81.19921875 83.56640625 81.19921875 82 80 C81.45214844 79.61457031 80.90429688 79.22914063 80.33984375 78.83203125 C76.6397064 76.02283606 74.36551435 72.9121968 72 69 C71.67 73.62 71.34 78.24 71 83 C64.62664634 84.2114083 58.2604903 85.17519061 52 83 C46.71338138 78.69991179 43.8325788 72.04777346 40.71435547 66.125 C37.58025209 60.41202318 33.93517246 55.01557402 30.375 49.5625 C29.02563145 47.46156841 27.67908799 45.35881854 26.3359375 43.25390625 C25.47814697 41.91307983 25.47814697 41.91307983 24.60302734 40.54516602 C23.03292615 38.05227766 21.51577384 35.52628973 20 33 C19.67 49.5 19.34 66 19 83 C12.73 83 6.46 83 0 83 C0 55.61 0 28.22 0 0 Z " fill="#5248E4" transform="translate(69,141)"/>
<path d="M0 0 C5.61 0 11.22 0 17 0 C17 6.27 17 12.54 17 19 C20.63 19 24.26 19 28 19 C28 23.62 28 28.24 28 33 C24.37 33 20.74 33 17 33 C17.14040213 36.29198191 17.28706875 39.58347446 17.4375 42.875 C17.47681641 43.81214844 17.51613281 44.74929687 17.55664062 45.71484375 C17.59853516 46.61074219 17.64042969 47.50664062 17.68359375 48.4296875 C17.72025146 49.25710449 17.75690918 50.08452148 17.79467773 50.93701172 C17.88238327 53.06179429 17.88238327 53.06179429 19 55 C21.31 55 23.62 55 26 55 C26.67467562 56.74692795 27.33944156 58.49768525 28 60.25 C28.37125 61.22453125 28.7425 62.1990625 29.125 63.203125 C30 66 30 66 30 70 C25.78626681 72.02194491 22.21416919 72.3281554 17.5625 72.375 C16.28503906 72.40335937 15.00757813 72.43171875 13.69140625 72.4609375 C7.98709915 71.74865365 5.25390561 69.51340594 1.640625 65.15234375 C-1.28788052 59.47571168 -0.41270588 52.76096823 -0.25 46.5625 C-0.23195313 45.25861328 -0.21390625 43.95472656 -0.1953125 42.61132812 C-0.14835957 39.40679091 -0.08269464 36.2037811 0 33 C-0.75708252 33.01160156 -1.51416504 33.02320313 -2.29418945 33.03515625 C-3.28636475 33.04417969 -4.27854004 33.05320313 -5.30078125 33.0625 C-6.28473877 33.07410156 -7.26869629 33.08570313 -8.2824707 33.09765625 C-11.47887692 32.98279123 -13.99965362 32.06678982 -17 31 C-19.69269497 30.83262956 -22.29821689 30.90683507 -25 31 C-25.33 32.32 -25.66 33.64 -26 35 C-24.99839844 35.36351562 -23.99679687 35.72703125 -22.96484375 36.1015625 C-15.66705249 38.83067625 -9.42676252 41.18561159 -4 47 C-2.18794316 52.43617053 -2.2900164 57.98215186 -4.1875 63.375 C-7.92025222 68.78105493 -11.70879863 70.5111457 -18 72 C-27.76289272 73.11361198 -37.9119159 73.30985284 -46 67 C-47 65 -47 65 -46.3125 61.625 C-45.00633213 58.01748875 -43.90026393 56.41688661 -41 54 C-35.32258065 55.80645161 -35.32258065 55.80645161 -33.125 57.125 C-29.77020265 58.50638714 -26.60532853 58.12017762 -23 58 C-22.67 56.35 -22.34 54.7 -22 53 C-22.556875 52.84144531 -23.11375 52.68289062 -23.6875 52.51953125 C-30.20877465 50.52569559 -36.12306029 47.87693971 -41 43 C-41.33 44.65 -41.66 46.3 -42 48 C-54.54 48 -67.08 48 -80 48 C-80 47.67 -80 47.34 -80 47 C-67.79 47 -55.58 47 -43 47 C-43.66 42.38 -44.32 37.76 -45 33 C-42.96223395 26.80179493 -40.30744535 23.68271718 -35 20 C-30.78286911 17.8766376 -27.25290418 17.76136576 -22.5625 17.8125 C-21.52319336 17.82216797 -21.52319336 17.82216797 -20.46289062 17.83203125 C-13.61659129 17.9317044 -6.82364867 18.43136261 0 19 C0 12.73 0 6.46 0 0 Z " fill="#5349E4" transform="translate(500,153)"/>
<path d="M0 0 C1.01642578 -0.01224609 2.03285156 -0.02449219 3.08007812 -0.03710938 C19.80262452 -0.06908365 19.80262452 -0.06908365 26.1875 4.1875 C25.85464869 8.07076523 24.7551512 10.1834713 21.88061523 12.81713867 C14.95566182 18.42200724 7.46236019 22.92486196 -0.4375 27 C-1.42459961 27.51135498 -2.41169922 28.02270996 -3.42871094 28.54956055 C-14.28963387 34.07855516 -25.46579099 38.75697567 -36.8125 43.1875 C-37.62605957 43.50525391 -38.43961914 43.82300781 -39.27783203 44.15039062 C-59.92968254 52.13119415 -81.02115894 59.00937632 -102.44824219 64.57177734 C-104.61722765 65.13664531 -106.78198316 65.71468101 -108.9453125 66.30078125 C-123.45204066 70.22274638 -138.00093349 73.76324528 -152.70556641 76.85229492 C-155.20738344 77.37918753 -157.70718766 77.9150039 -160.20703125 78.45117188 C-168.06956307 80.11948588 -175.77573246 81.63916657 -183.8125 82.1875 C-183.8125 81.5275 -183.8125 80.8675 -183.8125 80.1875 C-186.7825 80.1875 -189.7525 80.1875 -192.8125 80.1875 C-192.3175 79.1975 -192.3175 79.1975 -191.8125 78.1875 C-189.86425781 77.59667969 -189.86425781 77.59667969 -187.265625 77.109375 C-186.29101318 76.92141357 -185.31640137 76.73345215 -184.31225586 76.53979492 C-182.70362671 76.24165894 -182.70362671 76.24165894 -181.0625 75.9375 C-178.75635461 75.49169064 -176.45037101 75.04504371 -174.14453125 74.59765625 C-172.33202881 74.24985107 -172.33202881 74.24985107 -170.48291016 73.89501953 C-142.95318433 68.58830505 -115.40188848 62.75056778 -88.78320312 53.8359375 C-85.72791811 52.83063064 -82.64278207 51.92540663 -79.5625 51 C-35.09943228 39.33364487 -35.09943228 39.33364487 3.1875 17.1875 C2.48665283 17.47995605 1.78580566 17.77241211 1.0637207 18.07373047 C-2.1240295 19.40369626 -5.31201229 20.73310363 -8.5 22.0625 C-9.60279297 22.52269531 -10.70558594 22.98289062 -11.84179688 23.45703125 C-12.90849609 23.90175781 -13.97519531 24.34648438 -15.07421875 24.8046875 C-16.54314575 25.41739502 -16.54314575 25.41739502 -18.04174805 26.04248047 C-18.95609619 26.42033691 -19.87044434 26.79819336 -20.8125 27.1875 C-21.69139893 27.55762207 -22.57029785 27.92774414 -23.47583008 28.30908203 C-26.49941186 29.44572891 -28.61335884 29.67432583 -31.8125 29.1875 C-34.48508196 25.49284535 -35.96751889 21.45819811 -37.5 17.1875 C-37.93699219 15.99125 -38.37398437 14.795 -38.82421875 13.5625 C-39.71919443 10.50614036 -40.19982878 8.33103789 -39.8125 5.1875 C-36.81331451 2.18831451 -33.23343761 2.49722626 -29.1875 2.125 C-27.61192785 1.96796192 -26.03640651 1.81041319 -24.4609375 1.65234375 C-23.67581787 1.57717529 -22.89069824 1.50200684 -22.08178711 1.42456055 C-20.03725518 1.210979 -18.00004699 0.92989247 -15.96484375 0.640625 C-10.657461 -0.03566383 -5.34277405 0.0033497 0 0 Z " fill="#FDFEFE" transform="translate(394.8125,91.8125)"/>
<path d="M0 0 C0.92683594 -0.00515625 1.85367188 -0.0103125 2.80859375 -0.015625 C5.72304176 0.26548488 7.91140497 1.03752097 10.5625 2.25 C9.95894592 6.10025879 8.79477397 9.11101159 7 12.5625 C6.54496094 13.44550781 6.08992188 14.32851562 5.62109375 15.23828125 C5.09708984 16.23408203 5.09708984 16.23408203 4.5625 17.25 C3.60988281 17.11980469 2.65726562 16.98960937 1.67578125 16.85546875 C-5.03271441 15.81129889 -5.03271441 15.81129889 -11.4453125 17.2265625 C-15.34566032 21.22033182 -15.59621387 24.6462717 -15.75390625 30.0078125 C-15.77468735 30.67086395 -15.79546844 31.33391541 -15.81687927 32.01705933 C-15.88229231 34.13626694 -15.94122105 36.255599 -16 38.375 C-16.04319309 39.81121081 -16.08680764 41.24740902 -16.13085938 42.68359375 C-16.23875909 46.20560344 -16.33789243 49.72770688 -16.4375 53.25 C-22.3775 53.25 -28.3175 53.25 -34.4375 53.25 C-34.4375 36.09 -34.4375 18.93 -34.4375 1.25 C-28.4975 1.25 -22.5575 1.25 -16.4375 1.25 C-16.1075 3.23 -15.7775 5.21 -15.4375 7.25 C-14.53 6.46625 -13.6225 5.6825 -12.6875 4.875 C-8.57986704 1.32749881 -5.48685318 -0.03044024 0 0 Z " fill="#5249E4" transform="translate(284.4375,170.75)"/>
<path d="M0 0 C1.98177348 3.47241179 2.78937555 6.91713958 3.625 10.8125 C4.01558594 12.58560547 4.01558594 12.58560547 4.4140625 14.39453125 C5.00507208 18.0312102 5.24417351 21.32383215 5 25 C0.11881954 29.88118046 -8.88093234 29.06872919 -15.41894531 29.23974609 C-24.84648857 29.49920379 -32.96041683 29.96041683 -40 37 C-42.32275177 37.40047444 -44.65739357 37.7397104 -47 38 C-47.75338796 32.33349224 -48.44374825 26.60787982 -47 21 C-44.05019302 17.43150692 -40.55972322 15.83120662 -36.34326172 14.0234375 C-33.58176369 12.81733209 -30.89229515 11.49248385 -28.19140625 10.15625 C-6.88311337 -0.32014481 -6.88311337 -0.32014481 0 0 Z " fill="#FDFDFE" transform="translate(188,142)"/>
<path d="M0 0 C2.34164716 0.63684965 4.67655972 1.29963284 7 2 C6.93039062 3.80984375 6.93039062 3.80984375 6.859375 5.65625 C6.82182713 7.27080836 6.78543023 8.88539378 6.75 10.5 C6.71648437 11.29148438 6.68296875 12.08296875 6.6484375 12.8984375 C6.50259819 21.79463527 10.19130026 27.54588918 16 34 C6.36137832 36.52816306 -3.11436703 36.18269137 -13 36 C-13.33 36.66 -13.66 37.32 -14 38 C-14.09938095 33.83746725 -14.17170617 29.67557521 -14.21972656 25.51220703 C-14.23975843 24.09802205 -14.26699248 22.68391903 -14.30175781 21.27001953 C-14.35065489 19.22928581 -14.37305123 17.1896531 -14.390625 15.1484375 C-14.41157227 13.92302246 -14.43251953 12.69760742 -14.45410156 11.43505859 C-13.90929632 7.31387054 -12.5936566 5.21133329 -10 2 C-6.25405125 -0.49729916 -4.44844343 -0.2965629 0 0 Z " fill="#DBE1FD" transform="translate(282,186)"/>
<path d="M0 0 C0.78310547 0.56267578 0.78310547 0.56267578 1.58203125 1.13671875 C7.43485405 5.20601937 13.44067093 8.22914324 20 11 C20.042721 12.66611905 20.04063832 14.33382885 20 16 C19 17 19 17 15.5625 17.375 C10.02527401 17.35490118 5.69746408 14.69526628 1 12 C0.34 13.32 -0.32 14.64 -1 16 C-4.11253583 15.54227414 -6.25349805 14.86549083 -9.0625 13.375 C-11.77232853 11.82130176 -11.77232853 11.82130176 -14.0625 12.125 C-16.1151832 12.97103911 -16.1151832 12.97103911 -18.125 14.5625 C-22.39722438 16.69861219 -26.31291042 16.66637536 -31 16 C-34.5625 14.375 -34.5625 14.375 -37 12 C-37.33 10.02 -37.66 8.04 -38 6 C-25.46 6 -12.92 6 0 6 C0 4.02 0 2.04 0 0 Z " fill="#FBFBFE" transform="translate(458,195)"/>
<path d="M0 0 C3.74624361 1.66499716 5.81723041 3.5638193 8 7 C8.80503292 11.06541625 8.95254041 15.23956421 6.9453125 18.94921875 C4.54832816 21.87807831 2.60108153 23.82713987 -1.20703125 24.23828125 C-8.22118281 24.43808467 -8.22118281 24.43808467 -12 22.3125 C-15.03123377 18.80763596 -15.82478999 16.18266758 -16.5 11.625 C-15.8288294 6.75901315 -13.5570446 4.26216007 -10 1 C-6.80657621 -0.59671189 -3.47454369 -0.37418163 0 0 Z " fill="#DCE3FD" transform="translate(322,186)"/>
<path d="M0 0 C0.33 0 0.66 0 1 0 C1.03738281 0.72445312 1.07476562 1.44890625 1.11328125 2.1953125 C1.64040041 9.94706491 3.28600745 14.79807126 8 21 C7.0821875 20.94199219 6.164375 20.88398437 5.21875 20.82421875 C-2.63036733 20.53564826 -7.94264909 20.73273834 -14 26 C-13.93039062 25.05640625 -13.93039062 25.05640625 -13.859375 24.09375 C-13.6174397 18.35642718 -14.19434426 14.55958334 -17.125 9.59375 C-18 8 -18 8 -18 6 C-17.1646875 5.96132812 -17.1646875 5.96132812 -16.3125 5.921875 C-10.50405463 5.49016622 -4.30123878 4.30123878 0 0 Z " fill="#FDFDFE" transform="translate(296,69)"/>
<path d="M0 0 C4.59945605 0.09266303 8.17257681 1.51146149 12.375 3.3125 C12.705 2.6525 13.035 1.9925 13.375 1.3125 C13.375 1.9725 13.375 2.6325 13.375 3.3125 C16.015 3.3125 18.655 3.3125 21.375 3.3125 C21.375 12.2225 21.375 21.1325 21.375 30.3125 C20.385 30.3125 19.395 30.3125 18.375 30.3125 C18.30023438 29.43207031 18.22546875 28.55164063 18.1484375 27.64453125 C17.95121094 25.90236328 17.95121094 25.90236328 17.75 24.125 C17.63398438 22.97644531 17.51796875 21.82789063 17.3984375 20.64453125 C16.11013746 16.45018036 14.03251513 14.50429757 10.375 12.3125 C7.17072762 10.8056597 3.85228209 9.68644759 0.50195312 8.55273438 C-4.38377329 6.7747781 -4.38377329 6.7747781 -5.69921875 4.25390625 C-5.54980934 0.34567074 -3.52543237 0.30391658 0 0 Z " fill="#F2F1FD" transform="translate(478.625,182.6875)"/>
<path d="M0 0 C0.94875 0.825 1.8975 1.65 2.875 2.5 C7.48450321 6.45641138 12.24034752 10.22675437 17 14 C14.57614944 16.8378623 14.13395972 16.98487552 10.125 17.4375 C6.00194461 17.28563792 3.86819626 16.04202634 1 13 C-0.00496852 9.98509443 -0.10335303 7.95818308 -0.0625 4.8125 C-0.05347656 3.91144531 -0.04445312 3.01039063 -0.03515625 2.08203125 C-0.02355469 1.39496094 -0.01195312 0.70789063 0 0 Z " fill="#FAFAFE" transform="translate(211,194)"/>
<path d="M0 0 C2.8125 1.125 2.8125 1.125 5 3 C5.66 4.98 6.32 6.96 7 9 C0.4 9 -6.2 9 -13 9 C-12 4 -12 4 -9.875 1.6875 C-6.2426172 -0.44455077 -4.15582055 -0.51947757 0 0 Z " fill="#DADDFB" transform="translate(171,182)"/>
<path d="M0 0 C3.3125 1.6875 3.3125 1.6875 6 4 C6.33 5.65 6.66 7.3 7 9 C0.4 9 -6.2 9 -13 9 C-11.94523499 4.78093998 -11.1470668 3.76560416 -8 1 C-5.13391871 -0.43304064 -3.18699217 -0.30644155 0 0 Z " fill="#EFEEFC" transform="translate(433,182)"/>
<path d="M0 0 C-0.33 0.66 -0.66 1.32 -1 2 C-3.97 2 -6.94 2 -10 2 C-10 6.29 -10 10.58 -10 15 C-11.32 13.35 -12.64 11.7 -14 10 C-15.21705849 8.85962609 -16.46468843 7.7503538 -17.75 6.6875 C-18.36359375 6.17574219 -18.9771875 5.66398438 -19.609375 5.13671875 C-20.06828125 4.76160156 -20.5271875 4.38648438 -21 4 C-20.67 3.34 -20.34 2.68 -20 2 C-17.56206793 1.51835976 -15.21186982 1.15781367 -12.75 0.875 C-12.08097656 0.78863281 -11.41195312 0.70226562 -10.72265625 0.61328125 C-7.12967823 0.16857081 -3.61962856 -0.09820698 0 0 Z " fill="#F9FAFE" transform="translate(203,170)"/>
<path d="M0 0 C1 2 1 2 1.4375 5.4375 C1.76028836 9.09342145 1.76028836 9.09342145 4 12 C2.39125 11.938125 2.39125 11.938125 0.75 11.875 C-2.65747485 11.9885825 -4.20739631 12.21273364 -7 14 C-7.45572917 12.01432292 -7.91145833 10.02864583 -8.3671875 8.04296875 C-8.98007723 5.72257026 -8.98007723 5.72257026 -11 3 C-9.9275 3.061875 -8.855 3.12375 -7.75 3.1875 C-3.89133813 2.99456691 -2.71182212 2.60334924 0 0 Z " fill="#FCFCFE" transform="translate(313,100)"/>
<path d="M0 0 C0.48828125 2.01822917 0.9765625 4.03645833 1.46484375 6.0546875 C1.94846992 8.0585657 1.94846992 8.0585657 3 10 C-0.3 10.66 -3.6 11.32 -7 12 C-7.28875 10.9275 -7.5775 9.855 -7.875 8.75 C-8.72820109 5.90599636 -9.5636503 3.56491017 -11 1 C-8.98177083 1.03255208 -6.96354167 1.06510417 -4.9453125 1.09765625 C-3.0426929 1.00214322 -1.80150594 0 0 0 Z " fill="#FBFCFE" transform="translate(324,81)"/>
<path d="M0 0 C0.33 0 0.66 0 1 0 C1 12.87 1 25.74 1 39 C3.97 38.505 3.97 38.505 7 38 C6.02526874 39.66926454 5.04510211 41.33535642 4.0625 43 C3.51722656 43.928125 2.97195312 44.85625 2.41015625 45.8125 C1.94480469 46.534375 1.47945312 47.25625 1 48 C0.67 48 0.34 48 0 48 C0 32.16 0 16.32 0 0 Z " fill="#CFD0F9" transform="translate(140,141)"/>
<path d="M0 0 C0.33 0 0.66 0 1 0 C1 15.18 1 30.36 1 46 C-0.65 45.67 -2.3 45.34 -4 45 C-3.27876953 43.34677734 -3.27876953 43.34677734 -2.54296875 41.66015625 C0.05016268 33.88076195 -0.42249835 25.54968022 -0.3125 17.4375 C-0.27927731 15.74411498 -0.24478318 14.0507544 -0.20898438 12.35742188 C-0.12464678 8.23841713 -0.05757259 4.11946223 0 0 Z " fill="#CFD4FA" transform="translate(249,172)"/>
<path d="M0 0 C0.33 0 0.66 0 1 0 C1 4.29 1 8.58 1 13 C-1.08231683 10.39710397 -3.15099935 7.77350098 -5 5 C-3.35 5 -1.7 5 0 5 C0 3.35 0 1.7 0 0 Z " fill="#D3D6FA" transform="translate(192,172)"/>
<path d="M0 0 C0.33 0 0.66 0 1 0 C1 2.31 1 4.62 1 7 C-0.65 6.67 -2.3 6.34 -4 6 C-1.125 1.125 -1.125 1.125 0 0 Z " fill="#DAE0FC" transform="translate(249,211)"/>
</svg>
